<svg width="1399" height="315" viewBox="0 0 1399 315" fill="none" xmlns="http://www.w3.org/2000/svg">
<g clip-path="url(#clip0_7_599)">
<path d="M50.2 194L4.4 54H38L77.8 178H61L102.6 54H132.6L172.6 178H156.4L197.2 54H228.2L182.4 194H147.6L112.2 85.2H121.4L85 194H50.2ZM278.897 194.8C270.791 194.8 263.484 192.987 256.977 189.36C250.577 185.627 245.511 180.56 241.777 174.16C238.044 167.653 236.177 160.24 236.177 151.92C236.177 143.493 238.044 136.08 241.777 129.68C245.511 123.28 250.577 118.267 256.977 114.64C263.377 111.013 270.684 109.2 278.897 109.2C287.217 109.2 294.577 111.013 300.977 114.64C307.484 118.267 312.551 123.28 316.177 129.68C319.911 136.08 321.777 143.493 321.777 151.92C321.777 160.24 319.911 167.653 316.177 174.16C312.551 180.56 307.484 185.627 300.977 189.36C294.471 192.987 287.111 194.8 278.897 194.8ZM278.897 184.72C284.977 184.72 290.364 183.387 295.057 180.72C299.751 177.947 303.431 174.107 306.097 169.2C308.871 164.187 310.257 158.427 310.257 151.92C310.257 145.307 308.871 139.547 306.097 134.64C303.431 129.733 299.751 125.947 295.057 123.28C290.364 120.507 285.031 119.12 279.057 119.12C273.084 119.12 267.751 120.507 263.057 123.28C258.364 125.947 254.631 129.733 251.857 134.64C249.084 139.547 247.697 145.307 247.697 151.92C247.697 158.427 249.084 164.187 251.857 169.2C254.631 174.107 258.364 177.947 263.057 180.72C267.751 183.387 273.031 184.72 278.897 184.72ZM446.89 109.2C453.716 109.2 459.636 110.533 464.65 113.2C469.77 115.76 473.716 119.707 476.49 125.04C479.37 130.373 480.81 137.093 480.81 145.2V194H469.45V146.32C469.45 137.467 467.316 130.8 463.05 126.32C458.89 121.733 452.97 119.44 445.29 119.44C439.53 119.44 434.516 120.667 430.25 123.12C426.09 125.467 422.836 128.933 420.49 133.52C418.25 138 417.13 143.44 417.13 149.84V194H405.77V146.32C405.77 137.467 403.636 130.8 399.37 126.32C395.103 121.733 389.13 119.44 381.45 119.44C375.796 119.44 370.836 120.667 366.57 123.12C362.303 125.467 358.996 128.933 356.65 133.52C354.41 138 353.29 143.44 353.29 149.84V194H341.93V110H352.81V132.72L351.05 128.72C353.61 122.64 357.716 117.893 363.37 114.48C369.13 110.96 375.903 109.2 383.69 109.2C391.903 109.2 398.89 111.28 404.65 115.44C410.41 119.493 414.143 125.627 415.85 133.84L411.37 132.08C413.823 125.253 418.143 119.76 424.33 115.6C430.623 111.333 438.143 109.2 446.89 109.2ZM544.257 194.8C535.511 194.8 527.831 192.987 521.217 189.36C514.604 185.627 509.431 180.56 505.697 174.16C501.964 167.653 500.097 160.24 500.097 151.92C500.097 143.6 501.857 136.24 505.377 129.84C509.004 123.44 513.911 118.427 520.097 114.8C526.391 111.067 533.431 109.2 541.217 109.2C549.111 109.2 556.097 111.013 562.177 114.64C568.364 118.16 573.217 123.173 576.737 129.68C580.257 136.08 582.017 143.493 582.017 151.92C582.017 152.453 581.964 153.04 581.857 153.68C581.857 154.213 581.857 154.8 581.857 155.44H508.737V146.96H575.777L571.297 150.32C571.297 144.24 569.964 138.853 567.297 134.16C564.737 129.36 561.217 125.627 556.737 122.96C552.257 120.293 547.084 118.96 541.217 118.96C535.457 118.96 530.284 120.293 525.697 122.96C521.111 125.627 517.537 129.36 514.977 134.16C512.417 138.96 511.137 144.453 511.137 150.64V152.4C511.137 158.8 512.524 164.453 515.297 169.36C518.177 174.16 522.124 177.947 527.137 180.72C532.257 183.387 538.071 184.72 544.577 184.72C549.697 184.72 554.444 183.813 558.817 182C563.297 180.187 567.137 177.413 570.337 173.68L576.737 181.04C573.004 185.52 568.311 188.933 562.657 191.28C557.111 193.627 550.977 194.8 544.257 194.8ZM644.98 109.2C651.806 109.2 657.78 110.533 662.9 113.2C668.126 115.76 672.18 119.707 675.06 125.04C678.046 130.373 679.54 137.093 679.54 145.2V194H668.18V146.32C668.18 137.467 665.94 130.8 661.46 126.32C657.086 121.733 650.9 119.44 642.9 119.44C636.926 119.44 631.7 120.667 627.22 123.12C622.846 125.467 619.433 128.933 616.98 133.52C614.633 138 613.46 143.44 613.46 149.84V194H602.1V110H612.98V133.04L611.22 128.72C613.886 122.64 618.153 117.893 624.02 114.48C629.886 110.96 636.873 109.2 644.98 109.2Z" fill="#9A6AFF"/>
<path d="M783.3 195.28C774.02 195.28 765.753 193.413 758.5 189.68C751.246 185.84 745.54 180.56 741.38 173.84C737.326 167.12 735.3 159.493 735.3 150.96C735.3 142.32 737.326 134.693 741.38 128.08C745.54 121.36 751.246 116.133 758.5 112.4C765.753 108.56 774.02 106.64 783.3 106.64C792.366 106.64 800.26 108.56 806.98 112.4C813.7 116.133 818.66 121.52 821.86 128.56L802.5 138.96C800.26 134.907 797.433 131.92 794.02 130C790.713 128.08 787.086 127.12 783.14 127.12C778.873 127.12 775.033 128.08 771.62 130C768.206 131.92 765.486 134.64 763.46 138.16C761.54 141.68 760.58 145.947 760.58 150.96C760.58 155.973 761.54 160.24 763.46 163.76C765.486 167.28 768.206 170 771.62 171.92C775.033 173.84 778.873 174.8 783.14 174.8C787.086 174.8 790.713 173.893 794.02 172.08C797.433 170.16 800.26 167.12 802.5 162.96L821.86 173.52C818.66 180.453 813.7 185.84 806.98 189.68C800.26 193.413 792.366 195.28 783.3 195.28ZM873.057 195.28C863.884 195.28 855.724 193.36 848.577 189.52C841.537 185.68 835.937 180.453 831.777 173.84C827.724 167.12 825.697 159.493 825.697 150.96C825.697 142.32 827.724 134.693 831.777 128.08C835.937 121.36 841.537 116.133 848.577 112.4C855.724 108.56 863.884 106.64 873.057 106.64C882.124 106.64 890.231 108.56 897.377 112.4C904.524 116.133 910.124 121.307 914.177 127.92C918.231 134.533 920.257 142.213 920.257 150.96C920.257 159.493 918.231 167.12 914.177 173.84C910.124 180.453 904.524 185.68 897.377 189.52C890.231 193.36 882.124 195.28 873.057 195.28ZM873.057 174.8C877.217 174.8 880.951 173.84 884.257 171.92C887.564 170 890.177 167.28 892.097 163.76C894.017 160.133 894.977 155.867 894.977 150.96C894.977 145.947 894.017 141.68 892.097 138.16C890.177 134.64 887.564 131.92 884.257 130C880.951 128.08 877.217 127.12 873.057 127.12C868.897 127.12 865.164 128.08 861.857 130C858.551 131.92 855.884 134.64 853.857 138.16C851.937 141.68 850.977 145.947 850.977 150.96C850.977 155.867 851.937 160.133 853.857 163.76C855.884 167.28 858.551 170 861.857 171.92C865.164 173.84 868.897 174.8 873.057 174.8ZM986.221 106.64C993.048 106.64 999.128 108.027 1004.46 110.8C1009.9 113.467 1014.17 117.627 1017.26 123.28C1020.35 128.827 1021.9 135.973 1021.9 144.72V194H996.941V148.56C996.941 141.627 995.394 136.507 992.301 133.2C989.314 129.893 985.048 128.24 979.501 128.24C975.554 128.24 971.981 129.093 968.781 130.8C965.688 132.4 963.234 134.907 961.421 138.32C959.714 141.733 958.861 146.107 958.861 151.44V194H933.901V107.92H957.741V131.76L953.261 124.56C956.354 118.8 960.781 114.373 966.541 111.28C972.301 108.187 978.861 106.64 986.221 106.64ZM1093.81 106.64C1100.63 106.64 1106.71 108.027 1112.05 110.8C1117.49 113.467 1121.75 117.627 1124.85 123.28C1127.94 128.827 1129.49 135.973 1129.49 144.72V194H1104.53V148.56C1104.53 141.627 1102.98 136.507 1099.89 133.2C1096.9 129.893 1092.63 128.24 1087.09 128.24C1083.14 128.24 1079.57 129.093 1076.37 130.8C1073.27 132.4 1070.82 134.907 1069.01 138.32C1067.3 141.733 1066.45 146.107 1066.45 151.44V194H1041.49V107.92H1065.33V131.76L1060.85 124.56C1063.94 118.8 1068.37 114.373 1074.13 111.28C1079.89 108.187 1086.45 106.64 1093.81 106.64ZM1192.42 195.28C1182.6 195.28 1173.96 193.36 1166.5 189.52C1159.14 185.68 1153.43 180.453 1149.38 173.84C1145.32 167.12 1143.3 159.493 1143.3 150.96C1143.3 142.32 1145.27 134.693 1149.22 128.08C1153.27 121.36 1158.76 116.133 1165.7 112.4C1172.63 108.56 1180.47 106.64 1189.22 106.64C1197.64 106.64 1205.22 108.453 1211.94 112.08C1218.76 115.6 1224.15 120.72 1228.1 127.44C1232.04 134.053 1234.02 142 1234.02 151.28C1234.02 152.24 1233.96 153.36 1233.86 154.64C1233.75 155.813 1233.64 156.933 1233.54 158H1163.62V143.44H1220.42L1210.82 147.76C1210.82 143.28 1209.91 139.387 1208.1 136.08C1206.28 132.773 1203.78 130.213 1200.58 128.4C1197.38 126.48 1193.64 125.52 1189.38 125.52C1185.11 125.52 1181.32 126.48 1178.02 128.4C1174.82 130.213 1172.31 132.827 1170.5 136.24C1168.68 139.547 1167.78 143.493 1167.78 148.08V151.92C1167.78 156.613 1168.79 160.773 1170.82 164.4C1172.95 167.92 1175.88 170.64 1179.62 172.56C1183.46 174.373 1187.94 175.28 1193.06 175.28C1197.64 175.28 1201.64 174.587 1205.06 173.2C1208.58 171.813 1211.78 169.733 1214.66 166.96L1227.94 181.36C1223.99 185.84 1219.03 189.307 1213.06 191.76C1207.08 194.107 1200.2 195.28 1192.42 195.28ZM1289.19 195.28C1279.91 195.28 1271.65 193.413 1264.39 189.68C1257.14 185.84 1251.43 180.56 1247.27 173.84C1243.22 167.12 1241.19 159.493 1241.19 150.96C1241.19 142.32 1243.22 134.693 1247.27 128.08C1251.43 121.36 1257.14 116.133 1264.39 112.4C1271.65 108.56 1279.91 106.64 1289.19 106.64C1298.26 106.64 1306.15 108.56 1312.87 112.4C1319.59 116.133 1324.55 121.52 1327.75 128.56L1308.39 138.96C1306.15 134.907 1303.33 131.92 1299.91 130C1296.61 128.08 1292.98 127.12 1289.03 127.12C1284.77 127.12 1280.93 128.08 1277.51 130C1274.1 131.92 1271.38 134.64 1269.35 138.16C1267.43 141.68 1266.47 145.947 1266.47 150.96C1266.47 155.973 1267.43 160.24 1269.35 163.76C1271.38 167.28 1274.1 170 1277.51 171.92C1280.93 173.84 1284.77 174.8 1289.03 174.8C1292.98 174.8 1296.61 173.893 1299.91 172.08C1303.33 170.16 1306.15 167.12 1308.39 162.96L1327.75 173.52C1324.55 180.453 1319.59 185.84 1312.87 189.68C1306.15 193.413 1298.26 195.28 1289.19 195.28ZM1375.53 195.28C1365.4 195.28 1357.51 192.72 1351.85 187.6C1346.2 182.373 1343.37 174.64 1343.37 164.4V88.88H1368.33V164.08C1368.33 167.707 1369.29 170.533 1371.21 172.56C1373.13 174.48 1375.75 175.44 1379.05 175.44C1383 175.44 1386.36 174.373 1389.13 172.24L1395.85 189.84C1393.29 191.653 1390.2 193.04 1386.57 194C1383.05 194.853 1379.37 195.28 1375.53 195.28ZM1330.09 129.04V109.84H1389.77V129.04H1330.09Z" fill="white"/>
<path d="M204 59L1383 58" stroke="#9A6AFF" stroke-width="16" stroke-linecap="round"/>
<path d="M363.288 291V223.8H386.616C392.184 223.8 396.952 224.696 400.92 226.488C404.952 228.28 408.024 230.84 410.136 234.168C412.248 237.432 413.304 241.4 413.304 246.072C413.304 250.744 412.248 254.744 410.136 258.072C408.024 261.4 404.952 263.96 400.92 265.752C396.952 267.544 392.184 268.44 386.616 268.44H365.112L366.552 266.904V291H363.288ZM410.52 291L393.048 266.616H396.792L414.36 291H410.52ZM366.552 266.904L365.112 265.464H386.808C394.36 265.464 400.12 263.768 404.088 260.376C408.12 256.984 410.136 252.216 410.136 246.072C410.136 239.928 408.12 235.192 404.088 231.864C400.12 228.472 394.36 226.776 386.808 226.776H365.112L366.552 225.24V266.904ZM448.322 291.288C443.394 291.288 439.042 290.232 435.266 288.12C431.49 285.944 428.514 282.936 426.338 279.096C424.162 275.256 423.074 270.904 423.074 266.04C423.074 261.112 424.066 256.76 426.05 252.984C428.098 249.208 430.882 246.232 434.402 244.056C437.986 241.88 442.018 240.792 446.498 240.792C450.914 240.792 454.882 241.848 458.402 243.96C461.986 246.072 464.77 249.016 466.754 252.792C468.802 256.504 469.826 260.792 469.826 265.656C469.826 265.784 469.826 265.944 469.826 266.136C469.826 266.264 469.826 266.392 469.826 266.52H425.186V263.928H468.098L466.85 265.464C466.85 261.304 465.954 257.592 464.162 254.328C462.434 251 460.034 248.408 456.962 246.552C453.89 244.632 450.402 243.672 446.498 243.672C442.594 243.672 439.106 244.632 436.034 246.552C432.962 248.408 430.53 251 428.738 254.328C427.01 257.592 426.146 261.336 426.146 265.56V266.136C426.146 270.488 427.106 274.36 429.026 277.752C430.946 281.08 433.57 283.704 436.898 285.624C440.226 287.48 444.034 288.408 448.322 288.408C451.586 288.408 454.658 287.8 457.538 286.584C460.482 285.368 462.914 283.512 464.834 281.016L466.85 283.128C464.61 285.816 461.858 287.864 458.594 289.272C455.394 290.616 451.97 291.288 448.322 291.288ZM502.353 291.288C497.745 291.288 493.585 290.232 489.873 288.12C486.225 285.944 483.313 282.968 481.137 279.192C479.025 275.352 477.969 270.968 477.969 266.04C477.969 261.048 479.025 256.696 481.137 252.984C483.313 249.208 486.225 246.232 489.873 244.056C493.585 241.88 497.745 240.792 502.353 240.792C506.833 240.792 510.865 241.848 514.449 243.96C518.033 246.072 520.849 249.016 522.897 252.792C525.009 256.568 526.065 260.984 526.065 266.04C526.065 271.032 525.009 275.448 522.897 279.288C520.849 283.128 518.033 286.104 514.449 288.216C510.865 290.264 506.833 291.288 502.353 291.288ZM502.449 288.408C506.545 288.408 510.193 287.48 513.393 285.624C516.593 283.704 519.121 281.048 520.977 277.656C522.833 274.264 523.761 270.392 523.761 266.04C523.761 261.624 522.833 257.752 520.977 254.424C519.121 251.032 516.593 248.408 513.393 246.552C510.193 244.696 506.545 243.768 502.449 243.768C498.417 243.768 494.801 244.696 491.601 246.552C488.401 248.408 485.841 251.032 483.921 254.424C482.065 257.752 481.137 261.624 481.137 266.04C481.137 270.392 482.065 274.264 483.921 277.656C485.841 281.048 488.401 283.704 491.601 285.624C494.801 287.48 498.417 288.408 502.449 288.408ZM523.857 291V273.528L524.721 265.944L523.761 258.36V219.768H526.929V291H523.857ZM587.58 291.288C582.972 291.288 578.812 290.232 575.1 288.12C571.452 285.944 568.54 282.968 566.364 279.192C564.252 275.352 563.196 270.968 563.196 266.04C563.196 261.048 564.252 256.696 566.364 252.984C568.54 249.208 571.452 246.232 575.1 244.056C578.812 241.88 582.972 240.792 587.58 240.792C592.06 240.792 596.092 241.848 599.676 243.96C603.26 246.072 606.076 249.016 608.124 252.792C610.236 256.568 611.292 260.984 611.292 266.04C611.292 271.032 610.236 275.448 608.124 279.288C606.076 283.128 603.26 286.104 599.676 288.216C596.092 290.264 592.06 291.288 587.58 291.288ZM587.676 288.408C591.772 288.408 595.42 287.48 598.62 285.624C601.82 283.704 604.348 281.048 606.204 277.656C608.06 274.264 608.988 270.392 608.988 266.04C608.988 261.624 608.06 257.752 606.204 254.424C604.348 251.032 601.82 248.408 598.62 246.552C595.42 244.696 591.772 243.768 587.676 243.768C583.644 243.768 580.028 244.696 576.828 246.552C573.628 248.408 571.068 251.032 569.148 254.424C567.292 257.752 566.364 261.624 566.364 266.04C566.364 270.392 567.292 274.264 569.148 277.656C571.068 281.048 573.628 283.704 576.828 285.624C580.028 287.48 583.644 288.408 587.676 288.408ZM609.084 291V273.528L609.948 265.944L608.988 258.36V219.768H612.156V291H609.084ZM651.214 291.288C646.286 291.288 641.934 290.232 638.158 288.12C634.382 285.944 631.406 282.936 629.23 279.096C627.054 275.256 625.966 270.904 625.966 266.04C625.966 261.112 626.958 256.76 628.942 252.984C630.99 249.208 633.774 246.232 637.294 244.056C640.878 241.88 644.91 240.792 649.39 240.792C653.806 240.792 657.774 241.848 661.294 243.96C664.878 246.072 667.662 249.016 669.646 252.792C671.694 256.504 672.718 260.792 672.718 265.656C672.718 265.784 672.718 265.944 672.718 266.136C672.718 266.264 672.718 266.392 672.718 266.52H628.078V263.928H670.99L669.742 265.464C669.742 261.304 668.846 257.592 667.054 254.328C665.326 251 662.926 248.408 659.854 246.552C656.782 244.632 653.294 243.672 649.39 243.672C645.486 243.672 641.998 244.632 638.926 246.552C635.854 248.408 633.422 251 631.63 254.328C629.902 257.592 629.038 261.336 629.038 265.56V266.136C629.038 270.488 629.998 274.36 631.918 277.752C633.838 281.08 636.462 283.704 639.79 285.624C643.118 287.48 646.926 288.408 651.214 288.408C654.478 288.408 657.55 287.8 660.43 286.584C663.374 285.368 665.806 283.512 667.726 281.016L669.742 283.128C667.502 285.816 664.75 287.864 661.486 289.272C658.286 290.616 654.862 291.288 651.214 291.288ZM770.998 240.792C775.03 240.792 778.486 241.592 781.366 243.192C784.31 244.792 786.582 247.16 788.182 250.296C789.782 253.368 790.582 257.176 790.582 261.72V291H787.414V261.912C787.414 255.96 785.942 251.448 782.998 248.376C780.118 245.304 776.054 243.768 770.806 243.768C766.838 243.768 763.382 244.6 760.438 246.264C757.494 247.928 755.222 250.296 753.622 253.368C752.086 256.44 751.318 260.024 751.318 264.12V291H748.15V261.912C748.15 255.96 746.71 251.448 743.83 248.376C740.95 245.304 736.886 243.768 731.638 243.768C727.606 243.768 724.118 244.6 721.174 246.264C718.294 247.928 716.054 250.296 714.454 253.368C712.918 256.44 712.15 260.024 712.15 264.12V291H708.982V241.176H712.054V255.096L711.67 254.232C713.142 250.136 715.606 246.872 719.062 244.44C722.518 242.008 726.774 240.792 731.83 240.792C736.95 240.792 741.174 242.072 744.502 244.632C747.894 247.192 750.006 251.032 750.838 256.152L749.974 255.768C751.254 251.352 753.718 247.768 757.366 245.016C761.014 242.2 765.558 240.792 770.998 240.792ZM829.597 291.288C825.309 291.288 821.629 290.52 818.557 288.984C815.485 287.384 813.117 285.048 811.453 281.976C809.789 278.84 808.957 275 808.957 270.456V241.176H812.125V270.264C812.125 276.216 813.661 280.728 816.733 283.8C819.805 286.872 824.125 288.408 829.693 288.408C833.661 288.408 837.085 287.576 839.965 285.912C842.909 284.184 845.149 281.784 846.685 278.712C848.221 275.64 848.989 272.088 848.989 268.056V241.176H852.157V291H849.085V277.08L849.469 277.944C848.061 282.04 845.629 285.304 842.173 287.736C838.717 290.104 834.525 291.288 829.597 291.288ZM862.814 309.912C860.83 309.912 858.942 309.624 857.15 309.048C855.294 308.536 853.79 307.672 852.638 306.456L854.27 304.152C856.382 306.136 859.166 307.128 862.622 307.128C865.694 307.128 868.03 306.232 869.63 304.44C871.294 302.648 872.126 300.024 872.126 296.568V241.176H875.294V296.952C875.294 300.856 874.206 303.992 872.03 306.36C869.918 308.728 866.846 309.912 862.814 309.912ZM873.662 228.12C872.83 228.12 872.094 227.8 871.454 227.16C870.814 226.52 870.494 225.816 870.494 225.048C870.494 224.152 870.814 223.416 871.454 222.84C872.094 222.2 872.83 221.88 873.662 221.88C874.558 221.88 875.294 222.2 875.87 222.84C876.51 223.416 876.83 224.12 876.83 224.952C876.83 225.784 876.51 226.52 875.87 227.16C875.294 227.8 874.558 228.12 873.662 228.12ZM914.344 291.288C909.416 291.288 905.064 290.232 901.288 288.12C897.512 285.944 894.536 282.936 892.36 279.096C890.184 275.256 889.096 270.904 889.096 266.04C889.096 261.112 890.088 256.76 892.072 252.984C894.12 249.208 896.904 246.232 900.424 244.056C904.008 241.88 908.04 240.792 912.52 240.792C916.936 240.792 920.904 241.848 924.424 243.96C928.008 246.072 930.792 249.016 932.776 252.792C934.824 256.504 935.848 260.792 935.848 265.656C935.848 265.784 935.848 265.944 935.848 266.136C935.848 266.264 935.848 266.392 935.848 266.52H891.208V263.928H934.12L932.872 265.464C932.872 261.304 931.976 257.592 930.184 254.328C928.456 251 926.056 248.408 922.984 246.552C919.912 244.632 916.424 243.672 912.52 243.672C908.616 243.672 905.128 244.632 902.056 246.552C898.984 248.408 896.552 251 894.76 254.328C893.032 257.592 892.168 261.336 892.168 265.56V266.136C892.168 270.488 893.128 274.36 895.048 277.752C896.968 281.08 899.592 283.704 902.92 285.624C906.248 287.48 910.056 288.408 914.344 288.408C917.608 288.408 920.68 287.8 923.56 286.584C926.504 285.368 928.936 283.512 930.856 281.016L932.872 283.128C930.632 285.816 927.88 287.864 924.616 289.272C921.416 290.616 917.992 291.288 914.344 291.288ZM949.654 291V241.176H952.726V254.904L952.438 254.04C953.782 249.88 956.118 246.648 959.446 244.344C962.838 241.976 967.062 240.792 972.118 240.792V243.96C971.99 243.96 971.83 243.96 971.638 243.96C971.51 243.96 971.382 243.96 971.254 243.96C965.494 243.96 960.982 245.784 957.718 249.432C954.454 253.08 952.822 258.104 952.822 264.504V291H949.654ZM1003.32 291.288C998.393 291.288 994.041 290.232 990.265 288.12C986.489 285.944 983.513 282.936 981.337 279.096C979.161 275.256 978.073 270.904 978.073 266.04C978.073 261.112 979.065 256.76 981.049 252.984C983.097 249.208 985.881 246.232 989.401 244.056C992.985 241.88 997.017 240.792 1001.5 240.792C1005.91 240.792 1009.88 241.848 1013.4 243.96C1016.98 246.072 1019.77 249.016 1021.75 252.792C1023.8 256.504 1024.82 260.792 1024.82 265.656C1024.82 265.784 1024.82 265.944 1024.82 266.136C1024.82 266.264 1024.82 266.392 1024.82 266.52H980.185V263.928H1023.1L1021.85 265.464C1021.85 261.304 1020.95 257.592 1019.16 254.328C1017.43 251 1015.03 248.408 1011.96 246.552C1008.89 244.632 1005.4 243.672 1001.5 243.672C997.593 243.672 994.105 244.632 991.033 246.552C987.961 248.408 985.529 251 983.737 254.328C982.009 257.592 981.145 261.336 981.145 265.56V266.136C981.145 270.488 982.105 274.36 984.025 277.752C985.945 281.08 988.569 283.704 991.897 285.624C995.225 287.48 999.033 288.408 1003.32 288.408C1006.58 288.408 1009.66 287.8 1012.54 286.584C1015.48 285.368 1017.91 283.512 1019.83 281.016L1021.85 283.128C1019.61 285.816 1016.86 287.864 1013.59 289.272C1010.39 290.616 1006.97 291.288 1003.32 291.288ZM1050.63 291.288C1046.54 291.288 1042.7 290.68 1039.11 289.464C1035.53 288.184 1032.81 286.584 1030.95 284.664L1032.49 282.168C1034.34 283.832 1036.87 285.304 1040.07 286.584C1043.27 287.864 1046.82 288.504 1050.73 288.504C1056.3 288.504 1060.3 287.544 1062.73 285.624C1065.22 283.704 1066.47 281.208 1066.47 278.136C1066.47 275.896 1065.86 274.136 1064.65 272.856C1063.43 271.576 1061.83 270.584 1059.85 269.88C1057.86 269.176 1055.66 268.632 1053.22 268.248C1050.86 267.8 1048.46 267.32 1046.02 266.808C1043.59 266.232 1041.38 265.496 1039.4 264.6C1037.42 263.64 1035.82 262.328 1034.6 260.664C1033.38 259 1032.78 256.792 1032.78 254.04C1032.78 251.672 1033.42 249.496 1034.7 247.512C1036.04 245.528 1038.06 243.928 1040.74 242.712C1043.43 241.432 1046.86 240.792 1051.02 240.792C1054.09 240.792 1057.16 241.272 1060.23 242.232C1063.37 243.128 1065.86 244.344 1067.72 245.88L1066.09 248.376C1064.1 246.776 1061.77 245.592 1059.08 244.824C1056.46 244.056 1053.74 243.672 1050.92 243.672C1045.74 243.672 1041.96 244.664 1039.59 246.648C1037.22 248.632 1036.04 251.064 1036.04 253.944C1036.04 256.248 1036.65 258.104 1037.86 259.512C1039.08 260.856 1040.68 261.88 1042.66 262.584C1044.65 263.288 1046.82 263.864 1049.19 264.312C1051.62 264.76 1054.02 265.24 1056.39 265.752C1058.82 266.264 1061.03 266.968 1063.02 267.864C1065 268.76 1066.6 270.008 1067.82 271.608C1069.03 273.208 1069.64 275.384 1069.64 278.136C1069.64 280.696 1068.9 283 1067.43 285.048C1066.02 287.032 1063.91 288.568 1061.1 289.656C1058.34 290.744 1054.86 291.288 1050.63 291.288Z" fill="white"/>
<ellipse cx="707.5" cy="149" rx="16.5" ry="16" fill="white"/>
</g>
<defs>
<clipPath id="clip0_7_599">
<rect width="1399" height="315" fill="white"/>
</clipPath>
</defs>
</svg>
